<?xml version="1.0" standalone="no"?>
<!DOCTYPE svg PUBLIC "-//W3C//DTD SVG 20010904//EN"
 "http://www.w3.org/TR/2001/REC-SVG-20010904/DTD/svg10.dtd">
<svg version="1.0" xmlns="http://www.w3.org/2000/svg"
 width="331.000000pt" height="275.000000pt" viewBox="0 0 331.000000 275.000000"
 preserveAspectRatio="xMidYMid meet">

<g transform="translate(0.000000,275.000000) scale(0.100000,-0.100000)"
fill="#000000" stroke="none">
<path d="M1601 2609 c-367 -26 -663 -100 -848 -211 -174 -104 -273 -283 -273
-498 0 -180 87 -360 190 -391 79 -24 218 50 239 128 7 25 4 42 -16 85 -93 199
-54 347 115 432 54 27 99 41 197 60 112 22 425 49 425 36 0 -3 -22 -118 -50
-255 -27 -137 -50 -250 -50 -252 0 -2 -5 -3 -12 -3 -6 0 -23 -10 -36 -22 l-25
-23 12 23 c13 25 9 52 -8 52 -5 0 -23 -12 -40 -26 -33 -28 -40 -22 -16 13 8
12 11 24 6 27 -20 13 -68 -80 -57 -110 5 -14 13 -9 42 25 20 23 39 40 41 37 3
-2 0 -21 -7 -40 -19 -57 -2 -63 42 -15 39 43 39 44 33 14 -4 -16 -7 -46 -6
-65 0 -19 -10 -100 -24 -180 -14 -80 -41 -248 -61 -375 -19 -126 -49 -313 -65
-415 -40 -259 -62 -456 -54 -499 10 -54 42 -99 89 -123 52 -27 171 -29 230 -4
l38 17 -6 -25 c-5 -19 -3 -26 9 -26 8 0 16 10 17 23 0 12 2 27 2 34 1 6 9 19
17 30 33 37 41 69 60 251 41 391 142 1020 267 1672 l47 245 195 -3 c107 -1
276 -8 375 -15 99 -6 230 -12 292 -12 129 0 152 10 191 85 51 100 6 205 -105
244 -60 21 -226 44 -401 56 -177 12 -843 11 -1011 -1z"/>
<path d="M2280 2110 c-27 -27 -25 -66 4 -95 32 -32 67 -22 81 23 5 18 17 35
27 38 27 8 22 27 -6 20 -16 -4 -29 0 -41 14 -23 25 -40 25 -65 0z m62 -72 c-9
-35 -52 -13 -52 27 0 33 11 37 35 13 13 -13 20 -29 17 -40z"/>
<path d="M1019 2052 c-88 -23 -119 -45 -119 -82 0 -30 13 -46 30 -35 7 4 7 12
0 25 -7 14 -6 23 6 34 8 9 19 16 24 16 5 0 15 3 24 6 14 5 16 -4 16 -62 0 -96
9 -144 27 -144 13 0 14 16 8 109 l-7 110 38 6 c54 9 64 13 64 25 0 14 -34 12
-111 -8z"/>
<path d="M2151 1715 c-40 -13 -84 -34 -97 -46 -27 -25 -31 -61 -10 -78 17 -14
28 -1 16 19 -12 20 -1 39 31 56 35 18 33 22 49 -101 6 -49 13 -91 15 -94 2 -2
10 -1 18 2 11 4 11 20 -1 101 -8 52 -12 102 -9 110 3 7 24 17 46 21 25 4 41
12 41 21 0 19 -12 17 -99 -11z"/>
<path d="M2618 1413 c-24 -27 -31 -65 -15 -87 19 -26 67 -24 85 3 8 11 23 21
33 21 10 0 21 5 24 10 3 6 -3 10 -14 10 -12 0 -25 11 -33 28 -16 33 -57 41
-80 15z m46 -35 c7 -35 -5 -54 -28 -45 -18 7 -21 30 -6 58 15 28 27 23 34 -13z"/>
<path d="M1121 1314 c-12 -15 -21 -35 -21 -45 0 -40 63 -66 89 -35 6 7 22 11
35 9 13 -3 27 0 30 6 4 7 -1 11 -13 11 -16 0 -21 6 -21 28 0 35 -16 52 -51 52
-18 0 -35 -9 -48 -26z m57 -31 c-2 -30 -7 -38 -23 -38 -26 0 -31 31 -9 56 26
29 36 23 32 -18z"/>
<path d="M656 1285 c-18 -18 -19 -56 -1 -56 6 0 12 10 15 23 4 16 14 24 34 26
56 7 57 0 16 -100 -21 -51 -36 -96 -34 -100 14 -23 33 2 67 92 l38 99 47 -14
c26 -8 48 -15 50 -15 1 0 2 7 2 15 0 19 -57 35 -146 42 -58 4 -73 2 -88 -12z"/>
<path d="M2171 1017 c-24 -49 -27 -77 -8 -77 19 1 52 51 38 59 -8 5 -7 13 4
27 18 24 19 34 1 34 -8 0 -24 -19 -35 -43z"/>
<path d="M2229 1019 c-17 -15 -19 -19 -6 -15 20 6 21 -3 6 -38 -7 -14 -9 -32
-5 -42 5 -13 13 -8 47 27 34 38 39 40 34 19 -17 -66 -17 -70 0 -76 21 -9 67 7
73 24 3 10 -2 10 -22 1 -38 -18 -43 -5 -18 46 22 45 20 51 -18 45 -8 -1 -22
-8 -31 -16 -19 -17 -38 -19 -21 -2 16 16 15 48 -2 48 -8 0 -24 -9 -37 -21z"/>
<path d="M1004 690 c-95 -34 -127 -67 -104 -110 16 -30 30 -24 28 12 -2 25 2
35 24 47 15 9 29 13 32 10 3 -3 10 -41 16 -85 14 -100 18 -114 36 -114 17 0
17 8 5 81 -5 30 -12 73 -15 95 l-6 42 44 11 c25 6 48 15 51 21 10 16 -55 10
-111 -10z"/>
<path d="M475 637 c-25 -44 -32 -77 -17 -77 5 0 21 14 37 30 41 42 63 40 36
-4 -25 -40 -27 -56 -6 -56 8 0 15 4 15 9 0 12 59 55 67 48 3 -3 -3 -19 -13
-35 -9 -16 -14 -37 -11 -46 8 -20 47 -21 73 -1 18 15 17 16 -13 10 -40 -8 -41
2 -8 51 22 32 23 39 11 46 -10 6 -27 3 -45 -7 -41 -20 -44 -19 -25 10 14 22
14 25 1 31 -8 3 -29 -2 -46 -11 -32 -16 -42 -7 -16 15 15 12 12 30 -5 30 -5 0
-21 -20 -35 -43z"/>
<path d="M2097 622 c-35 -39 -15 -112 31 -112 34 0 52 16 52 46 0 14 8 25 20
29 11 3 20 13 20 21 0 11 -4 12 -19 5 -14 -8 -23 -6 -36 9 -23 25 -47 25 -68
2z m44 -33 c23 -23 22 -52 -4 -57 -19 -4 -42 41 -33 65 7 18 12 17 37 -8z"/>
<path d="M700 240 c-27 -27 -25 -66 4 -95 32 -32 67 -22 81 23 5 18 17 35 27
38 27 8 22 27 -6 20 -16 -4 -29 0 -41 14 -23 25 -40 25 -65 0z m62 -72 c-9
-35 -52 -13 -52 27 0 33 11 37 35 13 13 -13 20 -29 17 -40z"/>
<path d="M2506 68 c-9 -12 -16 -32 -17 -43 0 -13 -4 -9 -10 13 -5 17 -14 32
-19 32 -12 0 -40 -41 -40 -58 0 -12 3 -12 17 -1 13 11 17 11 20 2 8 -23 41
-14 47 12 7 29 26 24 26 -6 0 -10 7 -19 15 -19 11 0 13 8 9 33 -12 65 -22 73
-48 35z"/>
<path d="M382 54 c-25 -17 -30 -54 -7 -54 8 0 15 9 15 19 0 21 19 31 57 31 22
0 24 -3 19 -25 -5 -20 -3 -25 14 -25 14 0 20 7 20 21 0 18 5 20 50 18 58 -3
74 6 36 21 -43 16 -178 13 -204 -6z"/>
<path d="M1792 63 c-14 -5 -47 -63 -36 -63 4 0 13 8 20 17 13 17 13 17 14 1 0
-10 7 -18 15 -18 10 0 15 11 15 35 0 35 -3 38 -28 28z"/>
<path d="M1695 30 c-9 -17 -11 -30 -6 -30 5 0 12 6 14 13 4 9 8 8 16 -3 10
-13 12 -13 21 0 16 25 12 50 -10 50 -12 0 -26 -12 -35 -30z"/>
<path d="M2386 43 c-12 -12 -6 -43 9 -43 8 0 15 9 15 19 0 21 -13 34 -24 24z"/>
<path d="M2597 26 c-4 -10 -5 -21 -2 -24 9 -9 17 6 13 25 -3 17 -4 17 -11 -1z"/>
</g>
</svg>
