<?xml version="1.0" standalone="no"?>
<!DOCTYPE svg PUBLIC "-//W3C//DTD SVG 20010904//EN"
 "http://www.w3.org/TR/2001/REC-SVG-20010904/DTD/svg10.dtd">
<svg version="1.0" xmlns="http://www.w3.org/2000/svg"
 width="331.000000pt" height="396.000000pt" viewBox="0 0 331.000000 396.000000"
 preserveAspectRatio="xMidYMid meet">

<g transform="translate(0.000000,396.000000) scale(0.100000,-0.100000)"
fill="#000000" stroke="none">
<path d="M1601 3819 c-367 -26 -663 -100 -848 -211 -174 -104 -273 -283 -273
-498 0 -180 87 -360 190 -391 79 -24 218 50 239 128 7 25 4 42 -16 85 -93 199
-54 347 115 432 54 27 99 41 197 60 112 22 425 49 425 36 0 -3 -22 -118 -50
-255 -27 -137 -50 -250 -50 -252 0 -2 -5 -3 -12 -3 -6 0 -23 -10 -36 -22 l-25
-23 12 23 c13 25 9 52 -8 52 -5 0 -23 -12 -40 -26 -33 -28 -40 -22 -16 13 8
12 11 24 6 27 -20 13 -68 -80 -57 -110 5 -14 13 -9 42 25 20 23 39 40 41 37 3
-2 0 -21 -7 -40 -19 -57 -2 -63 42 -15 39 43 39 44 33 14 -4 -16 -7 -46 -6
-65 0 -19 -10 -100 -24 -180 -14 -80 -41 -248 -61 -375 -19 -126 -49 -313 -65
-415 -40 -259 -62 -456 -54 -499 10 -54 42 -99 89 -123 52 -27 171 -29 229 -4
l38 17 -7 -36 c-11 -60 16 -117 32 -67 27 82 44 95 44 33 0 -43 16 -64 27 -34
3 10 13 34 21 53 l16 35 5 -45 c7 -55 34 -65 71 -25 13 14 19 25 13 25 -6 0
-16 -7 -23 -15 -22 -27 -30 -16 -30 40 0 30 -4 55 -10 55 -11 0 -39 -27 -57
-56 -10 -16 -11 -15 -6 14 5 28 3 32 -15 32 -14 0 -27 -11 -37 -30 -9 -16 -18
-30 -21 -30 -11 0 4 71 18 87 32 37 40 69 59 251 41 391 142 1020 267 1672
l47 245 195 -3 c107 -1 276 -8 375 -15 99 -6 230 -12 292 -12 129 0 152 10
191 85 51 100 6 205 -105 244 -60 21 -226 44 -401 56 -177 12 -843 11 -1011
-1z"/>
<path d="M2280 3320 c-27 -27 -25 -66 4 -95 32 -32 67 -22 81 23 5 18 17 35
27 38 27 8 22 27 -6 20 -16 -4 -29 0 -41 14 -23 25 -40 25 -65 0z m62 -72 c-9
-35 -52 -13 -52 27 0 33 11 37 35 13 13 -13 20 -29 17 -40z"/>
<path d="M1019 3262 c-88 -23 -119 -45 -119 -82 0 -30 13 -46 30 -35 7 4 7 12
0 25 -7 14 -6 23 6 34 8 9 19 16 24 16 5 0 15 3 24 6 14 5 16 -4 16 -62 0 -96
9 -144 27 -144 13 0 14 16 8 109 l-7 110 38 6 c54 9 64 13 64 25 0 14 -34 12
-111 -8z"/>
<path d="M2151 2925 c-40 -13 -84 -34 -97 -46 -27 -25 -31 -61 -10 -78 17 -14
28 -1 16 19 -12 20 -1 39 31 56 35 18 33 22 49 -101 6 -49 13 -91 15 -94 2 -2
10 -1 18 2 11 4 11 20 -1 101 -8 52 -12 102 -9 110 3 7 24 17 46 21 25 4 41
12 41 21 0 19 -12 17 -99 -11z"/>
<path d="M2618 2623 c-24 -27 -31 -65 -15 -87 19 -26 67 -24 85 3 8 11 23 21
33 21 10 0 21 5 24 10 3 6 -3 10 -14 10 -12 0 -25 11 -33 28 -16 33 -57 41
-80 15z m46 -35 c7 -35 -5 -54 -28 -45 -18 7 -21 30 -6 58 15 28 27 23 34 -13z"/>
<path d="M1121 2524 c-12 -15 -21 -35 -21 -45 0 -40 63 -66 89 -35 6 7 22 11
35 9 13 -3 27 0 30 6 4 7 -1 11 -13 11 -16 0 -21 6 -21 28 0 35 -16 52 -51 52
-18 0 -35 -9 -48 -26z m57 -31 c-2 -30 -7 -38 -23 -38 -26 0 -31 31 -9 56 26
29 36 23 32 -18z"/>
<path d="M656 2495 c-18 -18 -19 -56 -1 -56 6 0 12 10 15 23 4 16 14 24 34 26
56 7 57 0 16 -100 -21 -51 -36 -96 -34 -100 14 -23 33 2 67 92 l38 99 47 -14
c26 -8 48 -15 50 -15 1 0 2 7 2 15 0 19 -57 35 -146 42 -58 4 -73 2 -88 -12z"/>
<path d="M2171 2227 c-24 -49 -27 -77 -8 -77 19 1 52 51 38 59 -8 5 -7 13 4
27 18 24 19 34 1 34 -8 0 -24 -19 -35 -43z"/>
<path d="M2229 2229 c-17 -15 -19 -19 -6 -15 20 6 21 -3 6 -38 -7 -14 -9 -32
-5 -42 5 -13 13 -8 47 27 34 38 39 40 34 19 -17 -66 -17 -70 0 -76 21 -9 67 7
73 24 3 10 -2 10 -22 1 -38 -18 -43 -5 -18 46 22 45 20 51 -18 45 -8 -1 -22
-8 -31 -16 -19 -17 -38 -19 -21 -2 16 16 15 48 -2 48 -8 0 -24 -9 -37 -21z"/>
<path d="M1004 1900 c-95 -34 -127 -67 -104 -110 16 -30 30 -24 28 12 -2 25 2
35 24 47 15 9 29 13 32 10 3 -3 10 -41 16 -85 14 -100 18 -114 36 -114 17 0
17 8 5 81 -5 30 -12 73 -15 95 l-6 42 44 11 c25 6 48 15 51 21 10 16 -55 10
-111 -10z"/>
<path d="M475 1847 c-25 -44 -32 -77 -17 -77 5 0 21 14 37 30 41 42 63 40 36
-4 -25 -40 -27 -56 -6 -56 8 0 15 4 15 9 0 12 59 55 67 48 3 -3 -3 -19 -13
-35 -9 -16 -14 -37 -11 -46 8 -20 47 -21 73 -1 18 15 17 16 -13 10 -40 -8 -41
2 -8 51 22 32 23 39 11 46 -10 6 -27 3 -45 -7 -41 -20 -44 -19 -25 10 14 22
14 25 1 31 -8 3 -29 -2 -46 -11 -32 -16 -42 -7 -16 15 15 12 12 30 -5 30 -5 0
-21 -20 -35 -43z"/>
<path d="M2097 1832 c-35 -39 -15 -112 31 -112 34 0 52 16 52 46 0 14 8 25 20
29 11 3 20 13 20 21 0 11 -4 12 -19 5 -14 -8 -23 -6 -36 9 -23 25 -47 25 -68
2z m44 -33 c23 -23 22 -52 -4 -57 -19 -4 -42 41 -33 65 7 18 12 17 37 -8z"/>
<path d="M700 1450 c-27 -27 -25 -66 4 -95 32 -32 67 -22 81 23 5 18 17 35 27
38 27 8 22 27 -6 20 -16 -4 -29 0 -41 14 -23 25 -40 25 -65 0z m62 -72 c-9
-35 -52 -13 -52 27 0 33 11 37 35 13 13 -13 20 -29 17 -40z"/>
<path d="M2506 1278 c-9 -12 -16 -32 -17 -43 0 -13 -4 -9 -10 13 -5 17 -14 32
-19 32 -13 0 -40 -41 -41 -65 -1 -13 -4 -9 -8 10 -7 35 -25 36 -29 1 -4 -28
22 -96 37 -96 5 0 11 21 13 47 3 46 28 76 28 33 0 -28 19 -62 31 -55 5 4 9 23
9 43 0 20 4 44 10 52 10 16 12 12 24 -42 4 -18 13 -28 25 -28 23 0 51 31 51
56 -1 15 -4 13 -16 -10 -19 -34 -34 -24 -43 30 -7 45 -24 53 -45 22z"/>
<path d="M382 1264 c-16 -11 -22 -24 -20 -40 4 -33 22 -35 27 -4 4 30 17 40
54 40 32 0 32 3 10 -74 -13 -49 -25 -69 -60 -99 -84 -75 -96 -214 -26 -298 22
-26 31 -30 57 -25 47 10 69 35 61 71 -28 128 -15 162 70 194 62 23 225 40 225
24 0 -6 -11 -66 -25 -134 -36 -175 -95 -539 -102 -632 -8 -98 5 -117 79 -117
60 0 84 22 92 82 3 24 11 86 17 138 20 173 58 373 71 381 16 11 58 12 58 2 0
-5 -11 -51 -25 -103 -15 -60 -21 -98 -15 -104 16 -16 26 4 51 108 l23 98 54
-6 c41 -5 53 -3 50 6 -6 18 -43 26 -125 27 -51 1 -73 5 -73 14 0 6 10 66 22
131 l22 119 197 -7 c220 -8 229 -5 229 58 0 68 -50 83 -315 92 -204 7 -380 -5
-500 -36 -43 -11 -80 -18 -82 -16 -2 2 2 24 9 50 l12 47 48 -2 c56 -3 72 6 34
21 -44 16 -178 13 -204 -6z"/>
<path d="M2002 888 c-13 -13 -17 -58 -4 -58 4 0 12 10 17 23 11 24 60 36 77
19 6 -6 -8 -41 -37 -95 -25 -47 -45 -92 -43 -99 1 -7 -12 -34 -30 -60 -18 -26
-44 -71 -57 -100 -31 -67 -33 -39 -4 83 11 48 19 99 17 111 -3 20 -8 23 -51
22 -64 -1 -82 -20 -107 -118 -11 -44 -22 -81 -23 -83 -2 -1 -25 -6 -50 -9 -45
-6 -47 -5 -47 17 -1 31 -35 108 -63 137 -82 89 -226 83 -323 -13 -71 -69 -97
-140 -92 -250 4 -100 34 -166 96 -209 54 -38 149 -48 217 -22 55 21 116 88
140 152 10 27 19 50 19 51 1 0 22 4 49 8 l47 7 0 -53 c0 -75 31 -219 47 -219
7 0 13 6 13 14 0 23 22 31 35 13 19 -27 30 -20 52 31 l21 47 1 -36 c1 -45 21
-65 50 -49 21 11 46 48 38 56 -2 2 -12 -5 -22 -16 -28 -31 -35 -24 -35 29 0
36 -4 50 -15 53 -12 2 -10 17 14 85 39 112 82 187 111 191 22 4 23 2 16 -45
-3 -26 -9 -97 -12 -158 -5 -100 -4 -113 15 -143 18 -27 27 -32 59 -32 51 0 63
16 97 125 42 137 107 255 141 255 19 0 18 -38 -2 -136 -9 -43 -14 -102 -12
-132 4 -47 10 -60 37 -84 27 -24 40 -28 92 -28 35 0 73 7 91 16 23 12 36 13
53 6 25 -11 65 3 73 26 3 11 0 12 -16 3 -48 -26 -43 0 12 59 48 52 66 103 47
139 -19 34 -44 25 -95 -34 -55 -64 -109 -93 -132 -71 -19 20 -18 66 7 182 12
54 22 123 22 152 2 45 -2 57 -22 73 -72 59 -209 -27 -285 -180 -20 -39 -38
-71 -39 -71 -2 0 6 43 16 95 20 99 18 133 -9 159 -20 20 -76 20 -115 0 -37
-19 -45 -13 -26 18 8 12 26 44 41 70 l26 47 45 -19 c28 -12 47 -15 51 -9 9 15
3 18 -71 45 -71 26 -144 31 -163 12z m-552 -320 c0 -45 34 -126 56 -135 35
-13 0 -101 -51 -129 -42 -22 -75 -10 -105 38 -22 37 -27 119 -10 177 12 44 57
91 87 91 20 0 23 -5 23 -42z"/>
<path d="M1552 878 c-32 -32 -3 -118 40 -118 19 0 48 32 48 53 0 9 9 21 20 27
28 15 25 32 -4 24 -16 -4 -25 -1 -29 10 -8 19 -58 21 -75 4z m51 -34 c20 -27
17 -54 -7 -54 -20 0 -39 36 -31 60 8 26 16 25 38 -6z"/>
<path d="M2866 668 c-20 -29 -20 -58 0 -86 24 -34 64 -26 86 17 10 19 24 39
33 43 23 14 18 29 -8 23 -15 -4 -28 -1 -36 9 -19 23 -57 20 -75 -6z m63 -71
c-15 -26 -49 -4 -49 32 0 41 11 45 36 14 16 -21 20 -33 13 -46z"/>
<path d="M993 308 c-30 -33 -45 -67 -39 -85 5 -12 15 -7 47 22 46 42 58 41 35
-4 -17 -33 -21 -61 -8 -61 5 0 21 14 37 30 42 44 63 40 34 -6 -22 -36 -22 -37
-4 -50 25 -19 39 -18 66 6 l24 20 -29 -10 c-42 -15 -49 0 -19 43 20 29 24 40
15 49 -9 9 -20 8 -47 -5 -19 -9 -35 -13 -35 -7 0 5 5 12 10 15 6 3 10 13 10
21 0 19 -35 18 -68 -3 l-27 -18 18 27 c28 44 15 54 -20 16z"/>
</g>
</svg>
