<?xml version="1.0" standalone="no"?>
<!DOCTYPE svg PUBLIC "-//W3C//DTD SVG 20010904//EN"
 "http://www.w3.org/TR/2001/REC-SVG-20010904/DTD/svg10.dtd">
<svg version="1.0" xmlns="http://www.w3.org/2000/svg"
 width="500.000000pt" height="300.000000pt" viewBox="0 0 500.000000 300.000000"
 preserveAspectRatio="xMidYMid meet">

<g transform="translate(0.000000,300.000000) scale(0.100000,-0.100000)"
fill="#000000" stroke="none">
<path d="M2292 2698 c-7 -7 -12 -18 -12 -24 0 -7 -7 -20 -17 -29 -11 -11 -13
-19 -6 -23 6 -4 13 -21 15 -37 2 -24 8 -31 29 -33 14 -2 31 4 39 13 16 20 5
32 -14 16 -19 -16 -36 -6 -36 20 0 12 7 19 20 19 11 0 20 5 20 10 0 6 -5 10
-12 10 -9 0 -9 3 0 12 16 16 15 58 -1 58 -7 0 -18 -5 -25 -12z m10 -40 c-8 -8
-9 -4 -5 13 4 13 8 18 11 10 2 -7 -1 -18 -6 -23z"/>
<path d="M3318 2643 c-7 -16 -18 -36 -26 -45 -9 -11 -11 -18 -4 -18 6 0 12
-12 14 -26 6 -49 62 -58 77 -13 4 12 2 12 -12 0 -22 -17 -47 -7 -47 19 0 13 7
20 18 20 14 0 18 9 20 45 2 53 -21 63 -40 18z m25 -13 c-3 -11 -7 -20 -9 -20
-2 0 -4 9 -4 20 0 11 4 20 9 20 5 0 7 -9 4 -20z"/>
<path d="M406 2624 c-19 -18 -21 -45 -4 -62 17 -17 32 -15 61 11 25 21 38 45
19 33 -5 -3 -16 4 -25 15 -20 23 -31 24 -51 3z m34 -40 c0 -8 -4 -14 -10 -14
-5 0 -10 9 -10 21 0 11 5 17 10 14 6 -3 10 -13 10 -21z"/>
<path d="M1186 2633 c-10 -10 -7 -83 4 -83 5 0 12 11 16 25 8 31 21 33 20 4
-1 -33 18 -33 31 -2 l11 28 1 -27 c1 -20 6 -28 19 -28 20 0 42 18 42 34 0 6
-5 5 -12 -2 -20 -20 -31 -14 -24 13 9 37 -2 50 -25 29 -17 -16 -19 -16 -19 -1
0 22 -8 21 -33 0 -11 -10 -17 -13 -14 -6 8 13 -6 26 -17 16z"/>
<path d="M2736 2584 c-19 -18 -21 -45 -4 -62 17 -17 32 -15 61 11 25 21 38 45
19 33 -5 -3 -16 4 -25 15 -20 23 -31 24 -51 3z m34 -40 c0 -8 -4 -14 -10 -14
-5 0 -10 9 -10 21 0 11 5 17 10 14 6 -3 10 -13 10 -21z"/>
<path d="M4162 2588 c-7 -7 -12 -18 -12 -24 0 -7 -7 -20 -17 -29 -11 -11 -13
-19 -6 -23 6 -4 13 -21 15 -37 2 -24 8 -31 29 -33 14 -2 31 4 39 13 16 20 5
32 -14 16 -19 -16 -36 -6 -36 20 0 12 7 19 20 19 11 0 20 5 20 10 0 6 -5 10
-12 10 -9 0 -9 3 0 12 16 16 15 58 -1 58 -7 0 -18 -5 -25 -12z m10 -40 c-8 -8
-9 -4 -5 13 4 13 8 18 11 10 2 -7 -1 -18 -6 -23z"/>
<path d="M1616 2514 c-17 -16 -20 -33 -10 -58 9 -23 35 -19 67 9 27 24 37 42
16 30 -6 -4 -17 2 -25 14 -18 25 -27 26 -48 5z m29 -52 c-11 -11 -27 17 -20
35 6 16 8 16 16 -6 5 -13 7 -26 4 -29z"/>
<path d="M776 2474 c-10 -25 -7 -74 4 -74 5 0 16 15 24 33 l14 32 1 -32 c1
-39 18 -44 27 -8 3 14 10 25 14 25 5 0 6 -9 3 -20 -3 -13 1 -22 11 -26 17 -7
46 11 46 28 0 6 -7 5 -15 -2 -13 -11 -15 -7 -15 24 0 40 -5 43 -32 19 -17 -15
-18 -15 -18 0 0 20 -11 22 -28 5 -9 -9 -12 -9 -12 0 0 17 -17 15 -24 -4z"/>
<path d="M3756 2404 c-19 -18 -21 -45 -4 -62 17 -17 32 -15 61 11 25 21 38 45
19 33 -5 -3 -16 4 -25 15 -20 23 -31 24 -51 3z m34 -40 c0 -8 -4 -14 -10 -14
-5 0 -10 9 -10 21 0 11 5 17 10 14 6 -3 10 -13 10 -21z"/>
<path d="M3156 2324 c-17 -16 -20 -33 -10 -58 9 -23 35 -19 67 9 27 24 37 42
16 30 -6 -4 -17 2 -25 14 -18 25 -27 26 -48 5z m29 -52 c-11 -11 -27 17 -20
35 6 16 8 16 16 -6 5 -13 7 -26 4 -29z"/>
<path d="M1368 2243 c-7 -16 -18 -36 -26 -45 -9 -11 -11 -18 -4 -18 6 0 12
-12 14 -26 6 -49 62 -58 77 -13 4 12 2 12 -12 0 -22 -17 -47 -7 -47 19 0 13 7
20 18 20 14 0 18 9 20 45 2 53 -21 63 -40 18z m25 -13 c-3 -11 -7 -20 -9 -20
-2 0 -4 9 -4 20 0 11 4 20 9 20 5 0 7 -9 4 -20z"/>
<path d="M2349 2255 c-13 -22 -18 -61 -9 -75 10 -16 11 -15 27 20 l12 25 0
-27 c1 -16 6 -28 11 -28 6 0 16 12 22 28 l12 27 4 -27 c4 -32 31 -38 52 -13
17 21 5 31 -16 14 -16 -13 -17 -11 -11 17 7 38 1 47 -24 34 -12 -7 -20 -6 -24
1 -5 7 -13 5 -25 -6 -17 -15 -18 -15 -22 2 -2 10 -6 14 -9 8z"/>
<path d="M286 2174 c-17 -16 -20 -33 -10 -58 9 -23 35 -19 67 9 27 24 37 42
16 30 -6 -4 -17 2 -25 14 -18 25 -27 26 -48 5z m29 -52 c-11 -11 -27 17 -20
35 6 16 8 16 16 -6 5 -13 7 -26 4 -29z"/>
<path d="M4466 2154 c-19 -18 -21 -45 -4 -62 17 -17 32 -15 61 11 25 21 38 45
19 33 -5 -3 -16 4 -25 15 -20 23 -31 24 -51 3z m34 -40 c0 -8 -4 -14 -10 -14
-5 0 -10 9 -10 21 0 11 5 17 10 14 6 -3 10 -13 10 -21z"/>
<path d="M3239 2085 c-13 -22 -18 -61 -9 -75 10 -16 11 -15 27 20 l12 25 0
-27 c1 -16 6 -28 11 -28 6 0 16 12 22 28 l12 27 4 -27 c4 -32 31 -38 52 -13
17 21 5 31 -16 14 -16 -13 -17 -11 -11 17 7 38 1 47 -24 34 -12 -7 -20 -6 -24
1 -5 7 -13 5 -25 -6 -17 -15 -18 -15 -22 2 -2 10 -6 14 -9 8z"/>
<path d="M1088 2003 c-7 -16 -18 -36 -26 -45 -9 -11 -11 -18 -4 -18 6 0 12
-12 14 -26 6 -49 62 -58 77 -13 4 12 2 12 -12 0 -22 -17 -47 -7 -47 19 0 13 7
20 18 20 14 0 18 9 20 45 2 53 -21 63 -40 18z m25 -13 c-3 -11 -7 -20 -9 -20
-2 0 -4 9 -4 20 0 11 4 20 9 20 5 0 7 -9 4 -20z"/>
<path d="M2826 1967 c-23 -17 -18 -70 7 -75 9 -2 30 7 46 20 31 24 41 44 18
35 -7 -3 -19 4 -25 14 -14 22 -22 23 -46 6z m27 -31 c6 -15 -1 -26 -15 -26 -4
0 -8 9 -8 20 0 23 15 27 23 6z"/>
<path d="M639 1868 c-7 -18 -17 -36 -21 -39 -8 -5 8 -67 23 -83 12 -14 59 3
59 21 0 13 -3 14 -12 5 -20 -20 -38 -14 -38 13 0 18 5 25 20 25 11 0 20 5 20
10 0 6 -5 10 -10 10 -7 0 -7 7 0 21 7 11 9 27 6 35 -9 24 -33 15 -47 -18z m27
-14 c-4 -9 -9 -15 -11 -12 -3 3 -3 13 1 22 4 9 9 15 11 12 3 -3 3 -13 -1 -22z"/>
<path d="M1536 1847 c-23 -17 -18 -70 7 -75 9 -2 30 7 46 20 31 24 41 44 18
35 -7 -3 -19 4 -25 14 -14 22 -22 23 -46 6z m27 -31 c6 -15 -1 -26 -15 -26 -4
0 -8 9 -8 20 0 23 15 27 23 6z"/>
<path d="M2035 1836 c-13 -19 -14 -29 -5 -45 12 -24 48 -28 56 -6 3 8 14 17
25 20 11 4 17 11 13 16 -3 5 -9 7 -14 4 -5 -3 -14 4 -20 15 -14 27 -36 25 -55
-4z m38 -20 c6 -15 -1 -26 -15 -26 -4 0 -8 9 -8 20 0 23 15 27 23 6z"/>
<path d="M4256 1853 c-10 -10 -7 -83 4 -83 5 0 12 11 16 25 8 31 21 33 20 4
-1 -33 18 -33 31 -2 l11 28 1 -27 c1 -20 6 -28 19 -28 20 0 42 18 42 34 0 6
-5 5 -12 -2 -20 -20 -31 -14 -24 13 9 37 -2 50 -25 29 -17 -16 -19 -16 -19 -1
0 22 -8 21 -33 0 -11 -10 -17 -13 -14 -6 8 13 -6 26 -17 16z"/>
<path d="M3560 1801 c-5 -11 -10 -26 -10 -35 0 -8 -5 -16 -11 -18 -7 -2 -6
-16 3 -43 14 -42 38 -55 63 -35 22 19 18 32 -5 18 -17 -11 -22 -10 -30 2 -16
26 -11 40 15 40 14 0 25 5 25 10 0 6 -4 10 -10 10 -6 0 -6 9 0 26 6 14 8 30 4
35 -9 15 -33 10 -44 -10z m21 -28 c-8 -15 -10 -15 -11 -2 0 17 10 32 18 25 2
-3 -1 -13 -7 -23z"/>
<path d="M1066 1624 c-17 -16 -20 -33 -10 -58 9 -23 35 -19 67 9 27 24 37 42
16 30 -6 -4 -17 2 -25 14 -18 25 -27 26 -48 5z m29 -52 c-11 -11 -27 17 -20
35 6 16 8 16 16 -6 5 -13 7 -26 4 -29z"/>
<path d="M2498 1553 c-7 -16 -18 -36 -26 -45 -9 -11 -11 -18 -4 -18 6 0 12
-12 14 -26 6 -49 62 -58 77 -13 4 12 2 12 -12 0 -22 -17 -47 -7 -47 19 0 13 7
20 18 20 14 0 18 9 20 45 2 53 -21 63 -40 18z m25 -13 c-3 -11 -7 -20 -9 -20
-2 0 -4 9 -4 20 0 11 4 20 9 20 5 0 7 -9 4 -20z"/>
<path d="M1792 1493 c-15 -26 -16 -60 -2 -68 6 -3 15 6 22 22 l12 28 4 -27 c4
-37 15 -35 35 5 12 20 16 24 14 11 -3 -12 -1 -27 3 -34 10 -16 50 -3 50 17 0
13 -3 13 -15 3 -13 -11 -15 -7 -15 24 0 35 -12 47 -25 26 -5 -8 -11 -8 -20 0
-9 8 -17 7 -28 -5 -14 -13 -16 -13 -19 3 -3 15 -5 14 -16 -5z"/>
<path d="M3105 1486 c-13 -19 -14 -29 -5 -45 12 -24 48 -28 56 -6 3 8 14 17
25 20 11 4 17 11 13 16 -3 5 -9 7 -14 4 -5 -3 -14 4 -20 15 -14 27 -36 25 -55
-4z m38 -20 c6 -15 -1 -26 -15 -26 -4 0 -8 9 -8 20 0 23 15 27 23 6z"/>
<path d="M4095 1376 c-13 -19 -14 -29 -5 -45 12 -24 48 -28 56 -6 3 8 14 17
25 20 11 4 17 11 13 16 -3 5 -9 7 -14 4 -5 -3 -14 4 -20 15 -14 27 -36 25 -55
-4z m38 -20 c6 -15 -1 -26 -15 -26 -4 0 -8 9 -8 20 0 23 15 27 23 6z"/>
<path d="M1310 1371 c-5 -11 -10 -26 -10 -35 0 -8 -5 -16 -11 -18 -7 -2 -6
-16 3 -43 14 -42 38 -55 63 -35 22 19 18 32 -5 18 -17 -11 -22 -10 -30 2 -16
26 -11 40 15 40 14 0 25 5 25 10 0 6 -4 10 -10 10 -6 0 -6 9 0 26 6 14 8 30 4
35 -9 15 -33 10 -44 -10z m21 -28 c-8 -15 -10 -15 -11 -2 0 17 10 32 18 25 2
-3 -1 -13 -7 -23z"/>
<path d="M529 1365 c-13 -22 -18 -61 -9 -75 10 -16 11 -15 27 20 l12 25 0 -27
c1 -16 6 -28 11 -28 6 0 16 12 22 28 l12 27 4 -27 c4 -32 31 -38 52 -13 17 21
5 31 -16 14 -16 -13 -17 -11 -11 17 7 38 1 47 -24 34 -12 -7 -20 -6 -24 1 -5
7 -13 5 -25 -6 -17 -15 -18 -15 -22 2 -2 10 -6 14 -9 8z"/>
<path d="M4426 1204 c-19 -18 -21 -45 -4 -62 17 -17 32 -15 61 11 25 21 38 45
19 33 -5 -3 -16 4 -25 15 -20 23 -31 24 -51 3z m34 -40 c0 -8 -4 -14 -10 -14
-5 0 -10 9 -10 21 0 11 5 17 10 14 6 -3 10 -13 10 -21z"/>
<path d="M3019 1205 c-13 -22 -18 -61 -9 -75 10 -16 11 -15 27 20 l12 25 0
-27 c1 -16 6 -28 11 -28 6 0 16 12 22 28 l12 27 4 -27 c4 -32 31 -38 52 -13
17 21 5 31 -16 14 -16 -13 -17 -11 -11 17 7 38 1 47 -24 34 -12 -7 -20 -6 -24
1 -5 7 -13 5 -25 -6 -17 -15 -18 -15 -22 2 -2 10 -6 14 -9 8z"/>
<path d="M445 1076 c-13 -19 -14 -29 -5 -45 12 -24 48 -28 56 -6 3 8 14 17 25
20 11 4 17 11 13 16 -3 5 -9 7 -14 4 -5 -3 -14 4 -20 15 -14 27 -36 25 -55 -4z
m38 -20 c6 -15 -1 -26 -15 -26 -4 0 -8 9 -8 20 0 23 15 27 23 6z"/>
<path d="M2476 1084 c-17 -16 -20 -33 -10 -58 9 -23 35 -19 67 9 27 24 37 42
16 30 -6 -4 -17 2 -25 14 -18 25 -27 26 -48 5z m29 -52 c-11 -11 -27 17 -20
35 6 16 8 16 16 -6 5 -13 7 -26 4 -29z"/>
<path d="M1616 1054 c-17 -16 -20 -33 -10 -58 9 -23 35 -19 67 9 27 24 37 42
16 30 -6 -4 -17 2 -25 14 -18 25 -27 26 -48 5z m29 -52 c-11 -11 -27 17 -20
35 6 16 8 16 16 -6 5 -13 7 -26 4 -29z"/>
<path d="M4229 995 c-13 -22 -18 -61 -9 -75 10 -16 11 -15 27 20 l12 25 0 -27
c1 -16 6 -28 11 -28 6 0 16 12 22 28 l12 27 4 -27 c4 -32 31 -38 52 -13 17 21
5 31 -16 14 -16 -13 -17 -11 -11 17 7 38 1 47 -24 34 -12 -7 -20 -6 -24 1 -5
7 -13 5 -25 -6 -17 -15 -18 -15 -22 2 -2 10 -6 14 -9 8z"/>
<path d="M760 941 c-5 -11 -10 -26 -10 -35 0 -8 -5 -16 -11 -18 -7 -2 -6 -16
3 -43 14 -42 38 -55 63 -35 22 19 18 32 -5 18 -17 -11 -22 -10 -30 2 -16 26
-11 40 15 40 14 0 25 5 25 10 0 6 -4 10 -10 10 -6 0 -6 9 0 26 6 14 8 30 4 35
-9 15 -33 10 -44 -10z m21 -28 c-8 -15 -10 -15 -11 -2 0 17 10 32 18 25 2 -3
-1 -13 -7 -23z"/>
<path d="M3462 898 c-7 -7 -12 -18 -12 -24 0 -7 -7 -20 -17 -29 -11 -11 -13
-19 -6 -23 6 -4 13 -21 15 -37 2 -24 8 -31 29 -33 14 -2 31 4 39 13 16 20 5
32 -14 16 -19 -16 -36 -6 -36 20 0 12 7 19 20 19 11 0 20 5 20 10 0 6 -5 10
-12 10 -9 0 -9 3 0 12 16 16 15 58 -1 58 -7 0 -18 -5 -25 -12z m10 -40 c-8 -8
-9 -4 -5 13 4 13 8 18 11 10 2 -7 -1 -18 -6 -23z"/>
<path d="M1286 824 c-19 -18 -21 -45 -4 -62 17 -17 32 -15 61 11 25 21 38 45
19 33 -5 -3 -16 4 -25 15 -20 23 -31 24 -51 3z m34 -40 c0 -8 -4 -14 -10 -14
-5 0 -10 9 -10 21 0 11 5 17 10 14 6 -3 10 -13 10 -21z"/>
<path d="M2116 824 c-10 -25 -7 -74 4 -74 5 0 16 15 24 33 l14 32 1 -32 c1
-39 18 -44 27 -8 3 14 10 25 14 25 5 0 6 -9 3 -20 -3 -13 1 -22 11 -26 17 -7
46 11 46 28 0 6 -7 5 -15 -2 -13 -11 -15 -7 -15 24 0 40 -5 43 -32 19 -17 -15
-18 -15 -18 0 0 20 -11 22 -28 5 -9 -9 -12 -9 -12 0 0 17 -17 15 -24 -4z"/>
<path d="M3802 763 c-15 -26 -16 -60 -2 -68 6 -3 15 6 22 22 l12 28 4 -27 c4
-37 15 -35 35 5 12 20 16 24 14 11 -3 -12 -1 -27 3 -34 10 -16 50 -3 50 17 0
13 -3 13 -15 3 -13 -11 -15 -7 -15 24 0 35 -12 47 -25 26 -5 -8 -11 -8 -20 0
-9 8 -17 7 -28 -5 -14 -13 -16 -13 -19 3 -3 15 -5 14 -16 -5z"/>
<path d="M4572 668 c-7 -7 -12 -18 -12 -24 0 -7 -7 -20 -17 -29 -11 -11 -13
-19 -6 -23 6 -4 13 -21 15 -37 2 -24 8 -31 29 -33 14 -2 31 4 39 13 16 20 5
32 -14 16 -19 -16 -36 -6 -36 20 0 12 7 19 20 19 11 0 20 5 20 10 0 6 -5 10
-12 10 -9 0 -9 3 0 12 16 16 15 58 -1 58 -7 0 -18 -5 -25 -12z m10 -40 c-8 -8
-9 -4 -5 13 4 13 8 18 11 10 2 -7 -1 -18 -6 -23z"/>
<path d="M1769 598 c-7 -18 -17 -36 -21 -39 -8 -5 8 -67 23 -83 12 -14 59 3
59 21 0 13 -3 14 -12 5 -20 -20 -38 -14 -38 13 0 18 5 25 20 25 11 0 20 5 20
10 0 6 -5 10 -10 10 -7 0 -7 7 0 21 7 11 9 27 6 35 -9 24 -33 15 -47 -18z m27
-14 c-4 -9 -9 -15 -11 -12 -3 3 -3 13 1 22 4 9 9 15 11 12 3 -3 3 -13 -1 -22z"/>
<path d="M542 548 c-7 -7 -12 -18 -12 -24 0 -7 -7 -20 -17 -29 -11 -11 -13
-19 -6 -23 6 -4 13 -21 15 -37 2 -24 8 -31 29 -33 14 -2 31 4 39 13 16 20 5
32 -14 16 -19 -16 -36 -6 -36 20 0 12 7 19 20 19 11 0 20 5 20 10 0 6 -5 10
-12 10 -9 0 -9 3 0 12 16 16 15 58 -1 58 -7 0 -18 -5 -25 -12z m10 -40 c-8 -8
-9 -4 -5 13 4 13 8 18 11 10 2 -7 -1 -18 -6 -23z"/>
<path d="M2542 548 c-7 -7 -12 -18 -12 -24 0 -7 -7 -20 -17 -29 -11 -11 -13
-19 -6 -23 6 -4 13 -21 15 -37 2 -24 8 -31 29 -33 14 -2 31 4 39 13 16 20 5
32 -14 16 -19 -16 -36 -6 -36 20 0 12 7 19 20 19 11 0 20 5 20 10 0 6 -5 10
-12 10 -9 0 -9 3 0 12 16 16 15 58 -1 58 -7 0 -18 -5 -25 -12z m10 -40 c-8 -8
-9 -4 -5 13 4 13 8 18 11 10 2 -7 -1 -18 -6 -23z"/>
<path d="M1149 485 c-13 -22 -18 -61 -9 -75 10 -16 11 -15 27 20 l12 25 0 -27
c1 -16 6 -28 11 -28 6 0 16 12 22 28 l12 27 4 -27 c4 -32 31 -38 52 -13 17 21
5 31 -16 14 -16 -13 -17 -11 -11 17 7 38 1 47 -24 34 -12 -7 -20 -6 -24 1 -5
7 -13 5 -25 -6 -17 -15 -18 -15 -22 2 -2 10 -6 14 -9 8z"/>
<path d="M3406 483 c-10 -10 -7 -83 4 -83 5 0 12 11 16 25 8 31 21 33 20 4 -1
-33 18 -33 31 -2 l11 28 1 -27 c1 -20 6 -28 19 -28 20 0 42 18 42 34 0 6 -5 5
-12 -2 -20 -20 -31 -14 -24 13 9 37 -2 50 -25 29 -17 -16 -19 -16 -19 -1 0 22
-8 21 -33 0 -11 -10 -17 -13 -14 -6 8 13 -6 26 -17 16z"/>
<path d="M4146 427 c-23 -17 -18 -70 7 -75 9 -2 30 7 46 20 31 24 41 44 18 35
-7 -3 -19 4 -25 14 -14 22 -22 23 -46 6z m27 -31 c6 -15 -1 -26 -15 -26 -4 0
-8 9 -8 20 0 23 15 27 23 6z"/>
<path d="M1932 293 c-15 -26 -16 -60 -2 -68 6 -3 15 6 22 22 l12 28 4 -27 c4
-37 15 -35 35 5 12 20 16 24 14 11 -3 -12 -1 -27 3 -34 10 -16 50 -3 50 17 0
13 -3 13 -15 3 -13 -11 -15 -7 -15 24 0 35 -12 47 -25 26 -5 -8 -11 -8 -20 0
-9 8 -17 7 -28 -5 -14 -13 -16 -13 -19 3 -3 15 -5 14 -16 -5z"/>
<path d="M326 187 c-23 -17 -18 -70 7 -75 9 -2 30 7 46 20 31 24 41 44 18 35
-7 -3 -19 4 -25 14 -14 22 -22 23 -46 6z m27 -31 c6 -15 -1 -26 -15 -26 -4 0
-8 9 -8 20 0 23 15 27 23 6z"/>
</g>
</svg>
